<?xml version="1.0" encoding="utf-8"?>
<!-- Svg Vector Icons : http://www.onlinewebfonts.com/icon -->
<!DOCTYPE svg PUBLIC "-//W3C//DTD SVG 1.1//EN" "http://www.w3.org/Graphics/SVG/1.1/DTD/svg11.dtd">
<svg version="1.1" xmlns="http://www.w3.org/2000/svg" xmlns:xlink="http://www.w3.org/1999/xlink" x="0px" y="0px" viewBox="0 0 1000 1000" enable-background="new 0 0 1000 1000" xml:space="preserve">
<metadata> Svg Vector Icons : http://www.onlinewebfonts.com/icon </metadata>
<g><path d="M10,500c0,270.6,219.4,490,490,490c270.6,0,490-219.4,490-490c0-270.6-219.4-490-490-490C229.4,10,10,229.4,10,500z M817,630.2c0,20,1.9,113.1,1.4,139.3h-257l-31.1-122.2l46.4-93.3L516,536.3l-66.7,18.1l45.2,92.2l-19.7,122.8H206.1c-0.5-26.2,1.4-119.3,1.4-139.3c10.2-29.4,43.8-33.6,71.9-45.5c30.9-13,65.1-28.1,95.9-40.7l26.3-7.1c10.5-7.2,20.8-31.2,26.4-43.1l12.5-3c-2.8-15.7-12.6-16.9-16.7-28.1l-4.8-50.3c0.1,0.8-11.5-2.1-13-3c-16.3-10.2-16.6-51.6-18.2-68.8c-0.7-7.9,10.2-14.3,7.2-28.7c-17.8-84.4,7.7-123.9,48.1-137c28.1-11.3,80.4-32.4,129.3-2.4l12.1,11.2l19.6,3.3c9.8,5.7,16.1,24.5,16.1,24.5c5.1,20.8,5.7,22.5,5.2,43.8c-0.2,8.2-4.9,46.3-3.6,57.9c1.1,9.6,3.5,10.4,7.3,18.3c6.6,13.8,4.4,32.8,1.8,46.7c-1.4,7.6-4.3,18.4-8.8,24.7c-4.9,6.8-14.7,6.9-19.1,14.9c-6.3,11.5-2.7,27.6-6.7,40.1c-4.5,14.1-15.9,15.1-16.8,33.5l16.8,2.4c5.6,11.9,15.8,35.9,26.3,43.1l26.4,7.1c30.8,12.6,65,27.7,95.9,40.7C773.2,596.6,806.9,600.8,817,630.2z"/></g>
</svg>