<?xml version="1.0" encoding="utf-8"?>
<!-- Svg Vector Icons : http://www.onlinewebfonts.com/icon -->
<!DOCTYPE svg PUBLIC "-//W3C//DTD SVG 1.1//EN" "http://www.w3.org/Graphics/SVG/1.1/DTD/svg11.dtd">
<svg version="1.1" xmlns="http://www.w3.org/2000/svg" xmlns:xlink="http://www.w3.org/1999/xlink" x="0px" y="0px" viewBox="0 0 1000 1000" enable-background="new 0 0 1000 1000" xml:space="preserve">
<metadata> Svg Vector Icons : http://www.onlinewebfonts.com/icon </metadata>
<g><path d="M272.6,590.2c-3.9,0-7.8-3.9-7.8-7.8c0-3.9,3.9-7.8,7.8-7.8h231.3c3.9-58.8,54.9-105.8,117.6-105.8c7.8,0,19.6,0,27.4,3.9V366.7H217.8v266.6h301.8c-7.8-11.8-11.8-27.4-11.8-43.1H272.6z M272.6,413.8h101.9c3.9,0,7.8,3.9,7.8,7.8c0,3.9-3.9,11.8-7.8,11.8H272.6c-3.9,0-7.8-3.9-7.8-11.8C264.8,417.7,268.7,413.8,272.6,413.8z M272.6,464.7h199.9c3.9,0,7.8,3.9,7.8,7.8c0,3.9-3.9,7.8-7.8,7.8H272.6c-3.9,0-7.8-3.9-7.8-7.8C264.8,468.6,268.7,464.7,272.6,464.7z M272.6,519.6h160.7c3.9,0,7.8,3.9,7.8,7.8c0,3.9-3.9,7.8-7.8,7.8H272.6c-3.9,0-7.8-3.9-7.8-7.8C264.8,523.5,268.7,519.6,272.6,519.6z"/><path d="M649,260.9H217.8v82.3H649V260.9z M523.5,323.6c-11.8,0-19.6-7.8-19.6-19.6c0-11.8,7.8-19.6,19.6-19.6c11.8,0,19.6,7.8,19.6,19.6C543.1,315.8,535.3,323.6,523.5,323.6z M570.6,323.6c-11.8,0-19.6-7.8-19.6-19.6c0-11.8,7.8-19.6,19.6-19.6c11.8,0,19.6,7.8,19.6,19.6C590.2,315.8,582.3,323.6,570.6,323.6z M617.6,323.6c-7.8,0-19.6-7.8-19.6-19.6c0-11.8,11.8-19.6,19.6-19.6c11.8,0,19.6,7.8,19.6,19.6C637.2,315.8,629.4,323.6,617.6,323.6z"/><path d="M500,10C229.5,10,10,229.5,10,500c0,270.5,219.5,490,490,490c270.5,0,490-219.5,490-490C990,229.5,770.5,10,500,10z M551,672.5H198.2c-11.8,0-19.6-7.8-19.6-19.6l0,0V245.2c0-11.8,7.8-19.6,19.6-19.6h466.5c11.8,0,19.6,7.8,19.6,19.6l0,0v235.2c31.4,19.6,51,58.8,51,98c0,66.6-51,117.6-117.6,117.6C594.1,696,570.6,688.2,551,672.5z M809.7,766.6c-11.8,11.8-31.4,11.8-43.1,0L696,696c15.7-11.8,31.4-23.5,43.1-43.1l70.6,70.6C821.4,739.1,821.4,754.8,809.7,766.6z"/><path d="M621.5,492.2c-47,0-90.2,39.2-90.2,90.2c0,47,39.2,90.2,90.2,90.2c51,0,90.2-39.2,90.2-90.2S672.5,492.2,621.5,492.2z M621.5,531.4c-27.4,0-51,23.5-51,51H551c0-39.2,31.4-70.6,70.6-70.6L621.5,531.4z"/></g>
</svg>