<?xml version="1.0" encoding="utf-8"?>
<!-- Svg Vector Icons : http://www.onlinewebfonts.com/icon -->
<!DOCTYPE svg PUBLIC "-//W3C//DTD SVG 1.1//EN" "http://www.w3.org/Graphics/SVG/1.1/DTD/svg11.dtd">
<svg version="1.1" xmlns="http://www.w3.org/2000/svg" xmlns:xlink="http://www.w3.org/1999/xlink" x="0px" y="0px" viewBox="0 0 1000 1000" enable-background="new 0 0 1000 1000" xml:space="preserve">
<metadata> Svg Vector Icons : http://www.onlinewebfonts.com/icon </metadata>
<g><g transform="translate(0.000000,511.000000) scale(0.100000,-0.100000)"><path d="M2561.4,4982.9c-1095-99.9-1979.5-449.4-2197.1-866.7c-46.4-92.7-53.5-242.5-49.9-877.4c7.1-684.8,14.3-784.7,74.9-902.4c67.8-132,67.8-135.5,0-253.2c-85.6-142.7-89.2-174.8-78.5-1027.2c7.1-638.4,10.7-670.5,96.3-791.8c46.4-71.3,71.3-139.1,57.1-149.8c-17.8-7.1-57.1-74.9-89.2-142.6c-49.9-103.4-64.2-253.3-71.3-741.9C293-1483.6,318-1686.9,449.9-1872.4l92.7-135.5l-74.9-82c-132-139.1-149.8-256.8-149.8-977.3c0-795.4,28.5-913.1,278.2-1109.2c517.2-410.2,1394.6-613.5,2614.4-613.5c991.5,0,1619.3,107,2193.6,370.9l260.4,121.3l260.4-135.5c142.7-74.9,353.1-164.1,467.2-196.2c189.1-53.5,214-53.5,292.5-3.6c57.1,35.7,103.4,117.7,128.4,217.6l39.2,160.5l221.2-14.3L7291-4280l28.5-156.9c17.8-85.6,50-178.3,67.8-203.3c89.2-107,617,17.8,1012.9,242.5c239,139.1,271.1,224.7,146.3,435.1l-89.2,153.4l153.4,132l149.8,131.9l128.4-89.2c231.8-156.9,321-107,538.6,303.2c146.2,285.3,249.7,620.6,221.1,731.2c-17.8,78.5-131.9,146.3-288.9,171.2c-60.6,10.7-71.3,42.8-82,210.4l-10.7,199.8l146.2,21.4c171.2,21.4,285.3,110.5,285.3,217.5c0,128.4-139.1,588.5-235.4,781.1c-167.6,335.3-256.8,374.5-495.8,235.4c-71.3-42.8-139.1-64.2-153.4-46.4c-14.3,17.8-71.3,82-128.4,146.3l-103.4,114.1l99.9,142.7c71.3,103.4,92.7,167.6,74.9,231.8c-35.7,149.8-506.5,431.6-909.5,542.1c-196.2,53.5-221.1,57.1-299.6,3.6c-53.5-35.7-96.3-110.6-117.7-210.5L7398,7.3l-214,14.3c-221.1,10.7-267.5,39.2-267.5,167.6c0,42.8-28.5,114.1-64.2,160.5c-85.6,103.4-224.7,99.9-574.2-21.4c-146.3-49.9-271.1-89.2-274.6-89.2c-7.1,0,14.2,42.8,42.8,99.9c39.2,74.9,49.9,264,49.9,845.3c0,684.8-7.1,763.3-71.3,891.7l-74.9,142.7l74.9,132c71.3,128.4,74.9,178.3,64.2,930.9l-10.7,799l-99.9,132C5550.4,4772.4,4034.5,5111.3,2561.4,4982.9z M4348.4,4715.4c1205.5-214,1801.2-674.1,1426.7-1098.5c-206.8-239-706.2-445.8-1408.9-585c-460.1-92.7-1858.3-92.7-2318.4,0c-460.1,92.7-759.7,185.5-1037.9,328.1c-552.8,274.6-638.4,595.7-239,895.3c285.3,217.6,959.4,428,1633.6,510C2818.3,4815.2,3941.8,4786.7,4348.4,4715.4z M706.7,3292.2c834.6-560,2839.1-724.1,4205.2-342.4c313.9,89.2,688.4,253.2,848.9,374.5c64.2,49.9,124.8,89.2,135.5,89.2c28.5,0,28.5-713.3,0-852.5c-67.8-338.8-749-670.6-1658.5-813.2c-531.4-78.5-1583.6-82-2065.1,0C1527.1,1858.4,988.5,2051,728.1,2261.4c-199.7,164.1-231.8,267.5-231.8,731.2c0,231.8,7.1,420.9,14.3,420.9C517.7,3413.5,606.9,3360,706.7,3292.2z M924.3,1904.8c349.5-171.2,791.8-292.5,1309-367.4c584.9-82,1804.8-53.5,2293.4,53.5c435.2,92.7,816.8,224.7,1062.9,363.8c189.1,107,199.8,107,246.1,46.4c67.8-92.7,57.1-292.5-25-406.6c-149.8-210.4-667-453-1205.6-570.7C3421,767,1826.7,888.2,1020.6,1298.4c-228.3,114.1-474.4,346-499.3,467.2c-17.8,96.3,64.2,306.7,110.6,285.3C646.1,2043.9,778.1,1979.7,924.3,1904.8z M835.1,1166.4c217.6-128.4,617-267.5,1059.3-363.8c424.4-92.7,1676.4-128.4,2197.1-67.8c670.6,82,1237.7,256.8,1626.5,502.9l164.1,107V881.1V421l-110.5-128.4c-231.8-263.9-873.9-499.3-1669.3-609.9c-513.6-71.3-1608.6-53.5-2072.3,39.3C1359.5-149.7,867.2,53.6,639,292.6L514.1,421l-10.7,485.1l-14.3,488.6l85.6-60.6C621.1,1302,738.8,1227.1,835.1,1166.4z M6713.1,178.4c10.7-35.7,28.6-110.5,42.8-171.2c39.2-181.9,71.3-196.2,435.1-196.2h335.3l53.5,124.8c25,67.8,49.9,156.9,49.9,196.2c0,42.8,25,71.3,57.1,71.3c135.6,0,870.3-349.5,870.3-417.3c0-7.1-39.2-67.8-89.2-132c-128.4-167.6-114.1-249.7,96.3-488.7c206.8-235.4,271-253.2,474.4-135.5c124.8,74.9,128.4,74.9,178.3,10.7c67.8-92.7,228.3-520.7,253.2-688.4l21.4-135.5l-153.4-25c-246.1-39.2-281.8-92.7-281.8-417.3c0-310.3,28.5-353.1,281.8-406.6c110.6-25,117.7-32.1,96.3-139.1c-28.5-139.1-267.5-652.7-328.1-702.7c-28.6-24.9-82.1-7.1-174.8,57.1c-74.9,49.9-157,89.2-185.5,89.2s-146.2-85.6-263.9-185.5c-235.4-214-260.4-299.6-135.6-506.5l71.3-124.8l-82-53.5c-196.2-128.4-759.7-328.1-791.8-278.2c-7.1,14.3-24.9,85.6-39.2,160.5c-42.8,214-89.2,239-442.3,239c-353.1,0-367.4-7.1-428-239c-25-85.6-53.5-153.4-71.3-153.4c-135.6,0-788.3,306.7-845.3,395.9c-10.7,21.4,21.4,99.9,74.9,174.8c124.8,178.3,107,249.7-124.8,492.2c-196.2,206.9-278.2,224.7-445.8,114.1c-57.1-39.2-117.7-71.3-132-71.3c-64.2,0-292.5,563.5-321,781.1c-10.7,78.5,10.7,92.8,164.1,132c96.3,25,185.5,57.1,199.7,74.9c14.3,14.2,39.2,153.4,49.9,303.2c21.4,246.1,17.8,281.7-49.9,349.5c-39.2,39.2-92.7,71.3-121.3,71.3c-28.5,0-92.7,14.2-142.7,35.7l-89.2,32.1l64.2,189.1c60.6,174.7,203.3,477.9,281.8,595.6c28.6,39.3,64.2,28.6,192.6-46.4c196.2-114.1,239-103.4,485.1,135.5c203.3,196.2,221.2,264,114.1,442.3c-39.2,64.2-71.3,128.4-71.3,142.7c0,49.9,285.3,192.6,549.3,278.2C6706,253.4,6695.3,253.4,6713.1,178.4z M935-149.7c1105.7-535,3124.5-574.2,4351.4-85.6c174.8,67.8,317.5,117.7,321,110.6c3.6-3.6,42.8-82,89.2-167.6l78.5-160.5l-142.7-139.1l-146.2-139.1l-124.8,96.3c-192.6,146.2-288.9,114.1-470.8-160.5l-149.8-231.8l-313.9-60.6c-966.6-189-1965.3-146.2-2981.8,135.5c-385.2,107-609.9,217.6-759.7,378.1C517.7-399.3,482-281.7,553.4-131.8c32.1,67.8,64.2,121.3,74.9,121.3C635.4-10.6,774.5-74.8,935-149.7z M874.4-966.4c181.9-92.8,677.7-235.4,1141.4-331.7c684.8-139.1,1797.6-128.4,2536,25l114.1,21.4l-53.5-167.6c-71.3-239-17.8-342.4,199.7-395.9l160.5-39.2v-192.6v-192.6l-142.7-21.4c-78.5-10.7-263.9-46.4-410.2-78.4c-806.1-171.2-1712-174.8-2436.1-10.7c-845.3,192.6-1198.4,353.1-1383.9,620.6c-78.5,114.2-85.6,171.2-96.3,574.2l-14.3,445.8l121.3-92.7C674.6-852.3,792.3-923.7,874.4-966.4z M885.1-2221.9c192.6-96.3,884.6-299.6,1287.6-378.1c463.7-89.2,1441-89.2,1972.4,0c214,32.1,392.3,57.1,395.9,50c7.1-10.7,121.3-428,153.4-549.3c14.3-67.7-3.6-82-156.9-114.1c-873.9-185.5-2072.3-160.5-2949.7,64.2C1031.3-3006.6,532-2674.9,532-2446.6c0,107,117.7,296,181.9,296C731.7-2150.6,810.2-2182.7,885.1-2221.9z M653.2-2953.1c178.3-135.5,613.5-324.6,930.9-403c538.6-135.6,834.6-167.6,1640.7-164.1c756.2,0,891.7,10.7,1501.6,139.1c92.7,21.4,114.1,10.7,149.8-67.8c60.6-132,199.7-153.4,370.9-57.1l142.7,82l142.7-146.2l146.2-142.7l-96.3-121.3c-53.5-71.3-92.8-171.2-92.8-231.8c0-103.4-14.2-114.1-292.5-221.1c-642-242.5-1055.7-303.2-2008.1-303.2c-556.4,0-841.8,17.8-1105.7,64.2C1273.8-4379.8,717.5-4123,571.2-3819.8c-64.2,131.9-74.9,221.1-74.9,556.4c0,221.1,10.7,399.5,21.4,399.5C528.4-2864,589-2903.2,653.2-2953.1z"/><path d="M1348.8,4034.1c-60.6-74.9,14.3-217.6,167.6-306.7c431.6-249.7,1826.2-346,2753.5-185.5c620.6,107,977.3,342.4,770.4,513.6c-46.4,39.2-67.8,32.1-153.4-60.6c-203.3-221.1-699.1-313.9-1697.8-313.9c-977.3,0-1533.7,110.6-1676.4,324.6C1448.6,4105.4,1413,4112.6,1348.8,4034.1z"/><path d="M6713.1-970c-335.3-124.8-560-331.7-713.3-663.4c-139.1-299.6-139.1-695.5-3.6-988c124.8-267.5,338.8-492.2,588.5-617c181.9-92.8,246.1-103.5,527.9-107c274.6,0,349.5,14.2,517.2,92.7c249.7,117.7,485.1,353.1,602.8,602.8c78.5,164.1,92.7,246.1,92.7,517.2c0,271.1-14.3,349.5-92.7,520.7c-199.7,424.5-585,677.7-1066.5,699.1C6966.4-902.3,6852.2-916.5,6713.1-970z M7540.6-1201.9c321-156.9,485.1-356.7,570.7-695.5c89.2-346,0-663.4-264-941.6c-181.9-192.6-370.9-281.8-649.1-303.2c-431.6-28.6-795.4,167.6-980.8,535c-228.3,452.9-110.6,991.6,285.3,1294.7C6788.1-1094.9,7226.7-1052.1,7540.6-1201.9z"/></g></g>
</svg>