<?xml version="1.0" encoding="utf-8"?>
<!-- Svg Vector Icons : http://www.onlinewebfonts.com/icon -->
<!DOCTYPE svg PUBLIC "-//W3C//DTD SVG 1.1//EN" "http://www.w3.org/Graphics/SVG/1.1/DTD/svg11.dtd">
<svg version="1.1" xmlns="http://www.w3.org/2000/svg" xmlns:xlink="http://www.w3.org/1999/xlink" x="0px" y="0px" viewBox="0 0 1000 1000" enable-background="new 0 0 1000 1000" xml:space="preserve">
<metadata> Svg Vector Icons : http://www.onlinewebfonts.com/icon </metadata>
<g><g transform="translate(0.000000,512.000000) scale(0.100000,-0.100000)"><path d="M1024.5,4993.3c-195.2-61.3-336.9-185.7-424.9-375.2l-49.8-105.3V3663c0-788.6,1.9-851.8,32.5-870.9c24.9-15.3,44-15.3,67,0c32.5,19.1,34.4,88.1,44,870.9c9.6,842.2,9.6,849.8,53.6,939.8c49.8,99.5,130.2,176.1,233.5,223.9c59.3,26.8,367.5,32.5,3022.3,40.2c2786.9,9.6,2955.3,11.5,2976.4,44c15.3,23,15.3,42.1,0,67c-21.1,30.6-183.8,32.5-2947.7,36.4C1654.2,5016.2,1089.6,5012.4,1024.5,4993.3z"/><path d="M7319.8,4997.1c-28.7-28.7-28.7-78.5,0-107.2c17.2-17.2,222-23,800.1-23c884.3,0,903.4-1.9,1043.2-143.6c134-134,145.5-191.4,139.7-765.6l-5.7-493.8l-86.1-28.7c-53.6-19.1-122.5-65.1-181.8-126.3c-208.6-208.6-214.4-478.5-17.2-698.6l84.2-93.8L8587,1618.8c-281.4-491.9-631.6-1110.2-782.9-1374.3C7654.8-17.7,7434.7-404.4,7317.9-613l-214.4-377.1l-55.5,38.3c-178,126.3-411.5,122.5-585.7-9.6l-61.3-45.9l-901.5,779c-870.9,754.1-901.5,780.9-890,836.4c28.7,155,28.7,202.9-1.9,306.3c-24.9,86.1-53.6,132.1-130.2,210.5c-218.2,216.3-497.7,216.3-713.9,0c-145.5-145.5-191.4-325.4-132.1-518.7c9.6-32.5-30.6-68.9-290.9-248.8C3174,242.6,2574.9-172.8,2010.2-567.1l-1029.8-712l-63.2,47.9c-36.4,26.8-97.6,61.3-139.7,74.6l-74.6,26.8l-9.6,1537c-9.6,1437.5-11.5,1538.9-42.1,1558c-24.9,15.3-44,15.3-67,0c-32.5-19.1-34.5-120.6-44-1558l-9.6-1537l-86.1-28.7c-178-59.4-344.5-290.9-344.5-482.4s166.5-423,344.5-482.4l86.1-28.7l9.6-639.3l9.6-639.3l49.8-105.3c26.8-59.3,76.6-137.8,111-176.1c53.6-63.1,57.4-74.6,36.4-109.1c-19.1-30.6-19.1-49.7-3.8-74.6c21.1-30.6,246.9-32.5,4256.9-32.5c4010,0,4235.8,1.9,4256.9,32.5c15.3,24.9,15.3,44-3.8,74.6c-21.1,34.5-17.2,46,36.4,109.1c34.5,38.3,84.2,116.8,111,176.1l49.8,105.3v629.7c0,578-1.9,631.6-32.5,650.8c-24.9,15.3-44,15.3-67,0c-30.6-19.1-34.5-78.5-44-650.8c-9.6-612.5-11.5-631.6-53.6-721.6c-24.9-49.8-76.6-114.8-114.8-147.4c-130.2-107.2-181.8-114.8-828.8-114.8h-589.5l-5.7,88c-11.5,168.5-134,168.5-145.5,0l-5.7-88h-802H5957l-3.8,1112.1c-5.7,1037.4-7.7,1115.9-38.3,1135c-24.9,15.3-44,15.3-67,0c-32.5-19.1-34.5-97.6-40.2-1135l-3.8-1112.1H5000h-803.9v2027v2027l67,11.5c36.4,7.7,105.3,44,153.1,80.4c55.5,42.1,97.6,61.2,112.9,51.7c13.4-9.6,306.3-260.3,648.9-558.9l624-541.7l5.7-250.7c5.7-212.5,11.5-250.8,40.2-269.9c23-15.3,42.1-15.3,67,0c24.9,17.2,34.4,57.4,42.1,201l9.6,178l162.7-141.6c90-76.6,166.5-143.6,170.4-145.5c3.8-3.8-7.7-45.9-24.9-95.7c-65.1-191.4-21-363.7,132.1-518.7c101.4-99.5,231.6-158.9,354.1-158.9c201,0,428.8,170.3,486.2,363.7c38.3,130.1,38.3,195.2-3.8,317.7l-34.5,99.5l178,312l178,313.9l3.8-1347.5c5.7-1259.5,7.6-1349.4,40.2-1368.6c23-15.3,42.1-15.3,67,0c30.6,19.1,32.5,118.7,42.1,1512.1l9.6,1491.1l754.1,1326.4c578,1014.5,761.8,1324.5,788.6,1324.5c34.5,0,36.4-55.5,40.2-1877.7c5.7-1766.7,7.6-1879.6,40.2-1900.7c23-15.3,42.1-15.3,67,0c30.6,21.1,32.5,134,38.3,1896.8l3.8,1873.9l88,23c126.3,34.5,281.4,193.3,321.6,329.2c17.2,57.4,30.6,124.4,30.6,153.1s-13.4,95.7-30.6,153.1c-38.3,130.2-189.5,287.1-313.9,329.2l-86.1,28.7l-9.6,524.4c-9.6,516.8-9.6,526.4-59.3,631.6c-70.8,151.2-172.3,254.6-319.6,327.3l-128.3,63.2l-803.9,5.7C7528.5,5020.1,7339,5016.2,7319.8,4997.1z M9530.6,3287.8c95.7-40.2,137.8-80.4,179.9-172.3c107.2-233.5-38.3-497.7-287.1-522.5c-168.4-15.3-304.3,57.4-367.5,195.2c-61.3,134-36.4,315.8,55.5,421.1C9197.5,3307,9396.6,3343.4,9530.6,3287.8z M4266.9,1105.8c95.7-40.2,137.8-80.4,179.9-172.3C4554,700,4408.6,435.9,4159.7,411c-168.4-15.3-304.3,57.4-367.5,195.2c-61.2,134-36.4,315.8,55.5,421.1C3933.9,1125,4132.9,1161.3,4266.9,1105.8z M3962.6,286.6l80.4-21.1v-2025.1v-2025.1h-794.3h-794.3l-3.8,748.4c-5.7,691-7.7,752.2-38.3,771.4c-24.9,15.3-44,15.3-67,0c-32.5-19.1-34.4-80.4-40.2-771.4l-3.8-748.4h-599.1c-687.2,0-729.3,7.7-865.2,143.6c-137.8,135.9-143.6,176.1-143.6,880.4v614.4l88.1,23c126.3,34.5,281.4,193.3,321.6,329.2c38.3,128.3,38.3,202.9,1.9,306.3c-15.3,45.9-24.9,88-17.2,93.8c5.7,5.8,279.5,197.2,606.7,424.9l597.2,415.4l9.6-681.4c9.6-620.2,13.4-681.4,44-700.6c23-15.3,42.1-15.3,67,0c30.6,19.1,32.5,84.2,42.1,761.8l9.6,738.8L3095.5,3.3l629.7,438.3l78.5-67C3845.8,338.3,3916.6,300,3962.6,286.6z M6927.5-1045.6c260.3-118.7,260.3-535.9-1.9-654.6c-206.7-93.8-442.1,1.9-511,206.7c-78.5,239.3,95.7,484.2,346.4,484.2C6808.8-1009.2,6883.4-1026.4,6927.5-1045.6z M783.3-1313.6c170.4-78.5,245-310.1,158.9-490c-128.2-266.1-532.1-268-652.7-1.9c-61.2,134-36.4,315.8,55.5,421.1C435-1282.9,639.8-1250.4,783.3-1313.6z"/><path d="M561.3,2447.6c-59.3-70.8,17.2-197.1,90-153.1c68.9,44,44,179.9-34.5,179.9C597.7,2474.4,572.8,2462.9,561.3,2447.6z"/><path d="M9327.7-1667.7c-59.3-70.8,17.2-197.1,90-153.1c68.9,44,44,179.9-34.5,179.9C9364.1-1640.8,9339.2-1652.3,9327.7-1667.7z"/><path d="M123-3807.6c-30.6-30.6-28.7-82.3,3.8-109.1c44-36.3,260.3-19.1,287.1,23c15.3,23,15.3,42.1,0,67C387.1-3786.5,161.3-3769.3,123-3807.6z"/><path d="M9597.6-3807.6c-30.6-30.6-28.7-82.3,3.8-109.1c44-36.3,260.3-19.1,287.1,23c15.3,23,15.3,42.1,0,67C9861.7-3786.5,9635.9-3769.3,9597.6-3807.6z"/><path d="M1577.7-4228.7c-30.6-30.6-28.7-82.3,3.8-109.1c17.2-15.3,338.8-19.1,1159.9-17.2c1056.6,5.7,1136.9,7.6,1156.1,38.3c15.3,24.9,15.3,44,0,67c-19.1,32.5-99.5,34.5-1159.9,40.2C1870.5-4205.7,1594.9-4211.4,1577.7-4228.7z"/><path d="M4697.6-4228.7c-30.6-30.6-28.7-82.3,3.8-109.1c17.2-15.3,352.2-19.1,1217.3-17.2c1112.1,5.7,1194.4,7.6,1213.5,38.3c15.3,24.9,15.3,44,0,67c-19.1,32.5-101.5,34.5-1217.3,40.2C5001.9-4205.7,4714.8-4211.4,4697.6-4228.7z"/><path d="M7966.8-4525.4c-26.8-19.1-61.3-47.9-76.6-67c-26.8-32.5-95.7-34.4-1070-40.2c-968.5-3.8-1043.2-5.7-1062.3-36.4c-15.3-24.9-15.3-44,0-67c19.1-32.5,97.6-34.4,1108.3-40.2c758-1.9,1094.8,1.9,1112.1,17.2c13.4,11.5,26.8,38.3,30.6,61.3c7.6,59.4,99.5,59.4,107.2,0c11.5-76.6,42.1-84.2,338.8-78.5c245,5.7,285.2,9.6,304.3,40.2c15.3,23,15.3,42.1,0,67c-17.2,26.8-57.4,32.6-258.4,38.3c-199.1,3.8-241.2,9.6-266.1,38.3c-49.8,57.4-120.6,99.6-172.3,99.6C8035.7-4492.8,7991.7-4508.1,7966.8-4525.4z"/><path d="M5271.8-4649.8c-57.4-57.4-5.7-137.8,84.2-126.3c65.1,7.6,101.5,59.3,72.7,107.2C5403.9-4628.7,5306.2-4615.3,5271.8-4649.8z"/></g></g>
</svg>