<?xml version="1.0" encoding="utf-8"?>
<!-- Svg Vector Icons : http://www.onlinewebfonts.com/icon -->
<!DOCTYPE svg PUBLIC "-//W3C//DTD SVG 1.1//EN" "http://www.w3.org/Graphics/SVG/1.1/DTD/svg11.dtd">
<svg version="1.1" xmlns="http://www.w3.org/2000/svg" xmlns:xlink="http://www.w3.org/1999/xlink" x="0px" y="0px" viewBox="0 0 1000 1000" enable-background="new 0 0 1000 1000" xml:space="preserve">
<metadata> Svg Vector Icons : http://www.onlinewebfonts.com/icon </metadata>
<g><path d="M879,838.2V424.7h-86.2c8.5,26.8,12.7,54.6,12.7,83.5c0,53.6-13.6,103-40.8,148.3c-27.2,45.3-64.2,81.1-111,107.5c-46.8,26.3-97.8,39.5-153.1,39.5c-83.8,0-155.5-28.8-215-86.5c-59.6-57.7-89.3-127.3-89.3-209c0-28.9,4.2-56.8,12.7-83.5h-90V838c0,11.1,3.7,20.3,11.2,27.8c7.5,7.5,16.7,11.2,27.8,11.2h682.1c10.6,0,19.8-3.7,27.4-11.2c7.7-7.5,11.5-16.7,11.5-27.8V838.2z M697.8,498.1c0-52.8-19.2-97.7-57.7-134.9c-38.5-37.2-85-55.8-139.4-55.9c-54,0-100.3,18.6-138.8,55.9s-57.7,82.2-57.7,134.9c0,52.7,19.2,97.7,57.7,134.9c38.5,37.2,84.7,55.9,138.8,55.9c54.4,0,100.9-18.6,139.4-55.9C678.6,595.8,697.8,550.8,697.8,498.1z M879,268.4V163.1c0-11.9-4.2-22.2-12.7-31c-8.5-8.7-18.9-13.1-31.3-13.1H724c-12.4,0-22.8,4.4-31.3,13.1c-8.5,8.7-12.7,19-12.7,31v105.3c0,12.4,4.2,22.8,12.7,31.3c8.5,8.5,18.9,12.7,31.3,12.7h111c12.4,0,22.8-4.2,31.3-12.7C874.8,291.2,879,280.8,879,268.4z M990,135.7v728.6c0,34.5-12.3,64-37,88.7c-24.7,24.7-54.2,37-88.7,37H135.7c-34.5,0-64-12.3-88.7-37c-24.7-24.7-37-54.2-37-88.7V135.7c0-34.5,12.3-64,37-88.7c24.7-24.7,54.2-37,88.7-37h728.6c34.5,0,64,12.3,88.7,37C977.7,71.7,990,101.2,990,135.7z"/></g>
</svg>