<?xml version="1.0" encoding="utf-8"?>
<!-- Svg Vector Icons : http://www.onlinewebfonts.com/icon -->
<!DOCTYPE svg PUBLIC "-//W3C//DTD SVG 1.1//EN" "http://www.w3.org/Graphics/SVG/1.1/DTD/svg11.dtd">
<svg version="1.1" xmlns="http://www.w3.org/2000/svg" xmlns:xlink="http://www.w3.org/1999/xlink" x="0px" y="0px" viewBox="0 0 1000 1000" enable-background="new 0 0 1000 1000" xml:space="preserve">
<metadata> Svg Vector Icons : http://www.onlinewebfonts.com/icon </metadata>
<g><g transform="matrix(1 0 0 -1 0 1536)"><path d="M638.5,986.2c5.5,0,26.3-9.4,62.2-28.1c35.9-18.7,55-30,57.1-33.8c0.9-2.1,1.3-5.3,1.3-9.6c0-14-3.6-30.2-10.8-48.5c-6.8-16.6-21.9-30.5-45.3-41.8c-23.4-11.3-45.1-16.9-65.1-16.9c-24.2,0-64.7,13.2-121.2,39.6c-41.7,19.1-77.8,44.2-108.5,75.3c-30.6,31.1-62.1,70.4-94.4,118c-30.6,45.5-45.7,86.8-45.3,123.8v5.1c1.3,38.7,17,72.3,47.2,100.8c10.2,9.4,21.3,14,33.2,14c2.6,0,6.4-0.3,11.5-1c5.1-0.6,9.1-1,12.1-1c8.1,0,13.7-1.4,16.9-4.1c3.2-2.8,6.5-8.6,9.9-17.5c3.4-8.5,10.4-27.2,21.1-56.1c10.6-28.9,15.9-44.9,15.9-47.9c0-8.9-7.3-21.2-22-36.7c-14.7-15.5-22-25.4-22-29.7c0-3,1.1-6.2,3.2-9.6c14.5-31.1,36.2-60.2,65.1-87.4c23.8-22.5,55.9-44,96.3-64.4c5.1-3,9.8-4.5,14-4.5c6.4,0,17.9,10.3,34.5,30.9C621.9,975.9,632.9,986.2,638.5,986.2z M508.9,648.1c54,0,105.8,10.6,155.4,31.9c49.6,21.3,92.2,49.8,127.9,85.5c35.7,35.7,64.2,78.4,85.5,127.9c21.3,49.6,31.9,101.3,31.9,155.4c0,54-10.6,105.8-31.9,155.4c-21.3,49.6-49.8,92.2-85.5,127.9c-35.7,35.7-78.4,64.2-127.9,85.5c-49.6,21.3-101.3,31.9-155.4,31.9c-54,0-105.8-10.6-155.4-31.9c-49.6-21.3-92.2-49.8-127.9-85.5c-35.7-35.7-64.2-78.4-85.5-127.9c-21.3-49.6-31.9-101.3-31.9-155.4c0-86.3,25.5-164.6,76.6-234.8l-50.4-148.7l154.4,49.1C356,670.2,429.4,648.1,508.9,648.1z M508.9,1529.8c65.1,0,127.3-12.8,186.6-38.3c59.3-25.5,110.5-59.8,153.4-102.7c43-43,77.2-94.1,102.7-153.4c25.5-59.3,38.3-121.5,38.3-186.6c0-65.1-12.8-127.3-38.3-186.6C926.2,802.8,892,751.7,849,708.7c-43-43-94.1-77.2-153.4-102.7c-59.3-25.5-121.5-38.3-186.6-38.3c-82.9,0-160.6,20-232.9,60L10,542.2l86.8,258.4C50.8,876.3,27.9,959,27.9,1048.8c0,65.1,12.8,127.3,38.3,186.6c25.5,59.3,59.8,110.5,102.7,153.4c43,43,94.1,77.2,153.4,102.7C381.6,1517.1,443.9,1529.8,508.9,1529.8z"/></g></g>
</svg>