<?xml version="1.0" encoding="utf-8"?>
<!-- Svg Vector Icons : http://www.onlinewebfonts.com/icon -->
<!DOCTYPE svg PUBLIC "-//W3C//DTD SVG 1.1//EN" "http://www.w3.org/Graphics/SVG/1.1/DTD/svg11.dtd">
<svg version="1.1" xmlns="http://www.w3.org/2000/svg" xmlns:xlink="http://www.w3.org/1999/xlink" x="0px" y="0px" viewBox="0 0 1000 1000" enable-background="new 0 0 1000 1000" xml:space="preserve">
<metadata> Svg Vector Icons : http://www.onlinewebfonts.com/icon </metadata>
<g><g transform="translate(0.000000,384.000000) scale(0.100000,-0.100000)"><path d="M4155.5,2510c-539-9.6-1638-44.1-2033.1-65.2c-707.8-38.4-918.7-72.9-1129.7-174.5c-517.9-255.1-740.4-717.3-824.8-1724.3C77.7-509,77.7-1807.6,165.9-2858.6c34.5-412.4,67.1-606.1,145.8-863.1c118.9-387.5,253.2-585,508.3-755.7c375.9-251.3,840.1-299.2,3322-347.1c1532.5-28.8,3815,30.7,4463.3,117c533.2,69,895.7,375.9,1074.1,907.2c165,492.9,220.6,1148.9,220.6,2639.2c0,1749.3-76.7,2416.7-337.6,2919.3c-143.8,278.1-454.6,516-778.7,598.4c-205.2,51.8-792.1,92.1-1837.5,124.7C6294.1,2502.3,4717.4,2517.6,4155.5,2510z M5407.9-288.5c792.1-473.8,1440.5-867,1440.5-872.7c0-7.7-2583.6-1563.2-2973-1789.5l-94-55.6v1845.2V684l94-55.6C3925.3,599.6,4615.8,187.2,5407.9-288.5z"/></g></g>
</svg>