<?xml version="1.0" encoding="utf-8"?>
<!-- Svg Vector Icons : http://www.onlinewebfonts.com/icon -->
<!DOCTYPE svg PUBLIC "-//W3C//DTD SVG 1.1//EN" "http://www.w3.org/Graphics/SVG/1.1/DTD/svg11.dtd">
<svg version="1.1" xmlns="http://www.w3.org/2000/svg" xmlns:xlink="http://www.w3.org/1999/xlink" x="0px" y="0px" viewBox="0 0 1000 1000" enable-background="new 0 0 1000 1000" xml:space="preserve">
<metadata> Svg Vector Icons : http://www.onlinewebfonts.com/icon </metadata>
<g><g><path d="M886.9,161.8c-81-94.4-198.7-148.5-323.1-148.5c-124.5,0-242.3,54.1-323.1,148.4C174.1,239,137.5,337.6,137.5,439.7c0,18.5,1.2,36.9,3.6,55.1h56.5c-1.7-11.4-3.1-22.8-3.7-34.3h131c0.3,11.6,1.1,23,2,34.3h41.8c-0.9-11.3-1.8-22.7-2.1-34.3h176.5v97.9c9.3,4.1,18,9.9,25.5,17.3l16.1,16V460.4H761c-1.8,58.4-10.9,113.8-25.5,162.7c-44-11.2-90.6-17.7-139-19.8l46.5,46c27.1,3,53.6,7.5,78.8,13.7c-6.2,15.9-13.2,30.7-20.6,44.6c11.8,14.3,18.6,32.4,19.2,51c16.3-24.5,30.7-52.7,42.6-84.2c22.9,7.5,44.1,16.4,63.6,26.4c-31,31.2-66.9,56.4-106.1,74.6V836c63.5-25.1,120.7-65.4,166.3-118.5C953.4,640.5,990,541.8,990,439.7C990,337.5,953.4,238.9,886.9,161.8z M324.8,418.8h-131c4.3-75.9,31.8-148.6,79-208.3c23.7,13,50,24.2,78.4,33.6C335.9,296.5,326.5,355.6,324.8,418.8z M364.4,204.8c-22.8-7.5-44-16.4-63.4-26.4c35.7-36,78-64.1,124.3-82.7C401.3,125,380.7,162,364.4,204.8z M542.9,418.8H366.5c1.8-58.4,10.9-113.7,25.5-162.7c47.7,12.1,98.3,18.9,151,20.4L542.9,418.8L542.9,418.8z M542.9,234.1c-47.4-1.4-94.1-7.3-137.3-17.9c28-71.6,68.9-124.4,115.3-144.9c7.3-0.8,14.6-1.5,22-1.9L542.9,234.1L542.9,234.1z M933.6,418.8H802.7c-1.7-63.2-11-122.3-26.5-174.7c28.5-9.4,54.8-20.6,78.5-33.6C901.8,270.1,929.3,342.8,933.6,418.8z M584.5,69.4c7.4,0.4,14.7,1.1,22,1.9c46.5,20.5,87.3,73.3,115.4,144.9c-43.2,10.6-89.9,16.5-137.3,17.8V69.4z M584.5,418.8V276.5c52.6-1.4,103.3-8.2,151-20.3c14.6,48.9,23.7,104.2,25.5,162.6H584.5L584.5,418.8z M702.1,95.6c46.3,18.6,88.7,46.7,124.4,82.7c-19.4,10-40.6,18.9-63.5,26.4C746.8,162,726.2,125,702.1,95.6z M854.7,668.8c-23.7-13.1-50.1-24.3-78.5-33.6c15.4-52.4,24.8-111.5,26.5-174.8h130.9C929.3,536.4,901.8,609.1,854.7,668.8z M678.9,785.1v-23.6c0-11.5-4.6-22.5-12.8-30.6l-127-125.7c-8.1-8-19-12.5-30.3-12.5h-64.1v-24c0-17.9-14.5-32.3-32.3-32.3H42.3c-17.9,0-32.3,14.5-32.3,32.3v216.4L678.9,785.1L678.9,785.1z M482.8,635c0-2.8,2.3-5.1,5.1-5.1h23.4c1.3,0,2.6,0.5,3.6,1.4l99.5,94.9c3.3,3.1,1.1,8.7-3.4,8.7h-123c-2.8,0-5.1-2.3-5.1-5.1V635L482.8,635z M678.9,802.9v71.6c0,17.9-14.5,32.3-32.3,32.3H612c-6.3-42.9-43.2-75.9-87.8-75.9c-44.5,0-81.5,33-87.7,75.9H261.1c-6.2-42.9-43.2-75.9-87.7-75.9c-44.5,0-81.5,33-87.7,75.9H42.3c-17.9,0-32.3-14.5-32.3-32.3v-71.6H678.9L678.9,802.9z M524.2,852.6c-37,0-67.1,30-67.1,67.1s30,67.1,67.1,67.1c37,0,67.1-30,67.1-67.1S561.3,852.6,524.2,852.6z M524.2,953.1c-18.5,0-33.5-15-33.5-33.5s15-33.5,33.5-33.5c18.5,0,33.5,15,33.5,33.5S542.7,953.1,524.2,953.1z M173.4,852.6c-37,0-67.1,30-67.1,67.1s30,67.1,67.1,67.1c37,0,67.1-30,67.1-67.1S210.4,852.6,173.4,852.6z M173.4,953.1c-18.5,0-33.5-15-33.5-33.5s15-33.5,33.5-33.5c18.5,0,33.5,15,33.5,33.5S191.9,953.1,173.4,953.1z"/></g><g></g><g></g><g></g><g></g><g></g><g></g><g></g><g></g><g></g><g></g><g></g><g></g><g></g><g></g><g></g></g>
</svg>