<?xml version="1.0" encoding="UTF-8" standalone="no"?>
<svg
   xmlns:dc="http://purl.org/dc/elements/1.1/"
   xmlns:cc="http://creativecommons.org/ns#"
   xmlns:rdf="http://www.w3.org/1999/02/22-rdf-syntax-ns#"
   xmlns:svg="http://www.w3.org/2000/svg"
   xmlns="http://www.w3.org/2000/svg"
   xmlns:sodipodi="http://sodipodi.sourceforge.net/DTD/sodipodi-0.dtd"
   xmlns:inkscape="http://www.inkscape.org/namespaces/inkscape"
   inkscape:version="1.0 (4035a4fb49, 2020-05-01)"
   sodipodi:docname="mapa_desc_ubi.svg"
   id="svg28"
   viewBox="0 0 1133.000000 1280.000000"
   height="1280.000000pt"
   width="1133.000000pt"
   version="1.0">
  <defs
     id="defs32" />
  <sodipodi:namedview
     inkscape:current-layer="layer1"
     inkscape:window-maximized="1"
     inkscape:window-y="-9"
     inkscape:window-x="-9"
     inkscape:cy="612.39216"
     inkscape:cx="755.33333"
     inkscape:zoom="0.49804688"
     showgrid="false"
     id="namedview30"
     inkscape:window-height="1005"
     inkscape:window-width="1920"
     inkscape:pageshadow="2"
     inkscape:pageopacity="0"
     guidetolerance="10"
     gridtolerance="10"
     objecttolerance="10"
     borderopacity="1"
     bordercolor="#666666"
     pagecolor="#ffffff" />
  <metadata
     id="metadata22">
Created by potrace 1.15, written by Peter Selinger 2001-2017
<rdf:RDF>
  <cc:Work
     rdf:about="">
    <dc:format>image/svg+xml</dc:format>
    <dc:type
       rdf:resource="http://purl.org/dc/dcmitype/StillImage" />
    <dc:title></dc:title>
  </cc:Work>
</rdf:RDF>
</metadata>
  <g
     id="g26"
     stroke="none"
     fill="#000000"
     transform="translate(0.000000,1280.000000) scale(0.100000,-0.100000)">
    <path
       id="path24"
       d="M3903 12778 c-20 -12 -42 -40 -58 -74 -14 -30 -31 -54 -37 -54 -6 0 -33 20 -59 45 -51 47 -67 53 -99 33 -16 -10 -23 -10 -36 4 -16 16 -19 15 -52 -10 -28 -22 -46 -27 -101 -28 -36 -1 -74 -5 -83 -9 -11 -4 -20 0 -28 14 -14 27 -34 27 -59 0 -11 -12 -36 -23 -63 -26 -23 -2 -60 -13 -80 -24 -29 -15 -42 -18 -57 -9 -27 14 -29 14 -60 -21 -27 -30 -30 -30 -69 -19 -37 12 -45 10 -113 -21 -41 -18 -85 -43 -100 -56 -14 -13 -34 -23 -45 -23 -27 0 -133 -71 -180 -121 -87 -91 -115 -117 -151 -135 -20 -10 -49 -32 -64 -48 -25 -29 -29 -29 -71 -20 -57 13 -81 4 -98 -36 -12 -30 -16 -32 -52 -27 -35 5 -40 2 -65 -36 -30 -44 -43 -53 -87 -62 -40 -8 -92 -67 -126 -140 -38 -85 -49 -92 -113 -75 -29 7 -61 19 -72 26 -25 18 -63 17 -95 -1 -14 -8 -47 -14 -73 -15 l-48 0 -24 -52 c-12 -29 -37 -66 -54 -82 -17 -17 -31 -34 -31 -39 0 -10 -43 -70 -79 -109 -14 -16 -35 -28 -49 -28 -13 0 -37 -11 -52 -24 -16 -13 -46 -26 -68 -30 -26 -4 -48 -15 -61 -32 -25 -31 -61 -42 -153 -45 -67 -2 -72 -1 -80 22 -6 15 -5 31 3 46 7 13 10 26 7 29 -3 3 -45 7 -94 10 -48 3 -103 12 -123 20 -27 12 -55 14 -113 9 -57 -5 -100 -2 -163 11 -67 14 -92 16 -117 7 -18 -6 -61 -14 -94 -18 l-61 -7 324 -501 c281 -434 340 -533 439 -729 63 -125 114 -234 114 -242 0 -7 -16 -26 -35 -40 -38 -29 -43 -50 -20 -80 27 -36 19 -55 -27 -63 -37 -5 -54 -18 -116 -82 l-73 -76 6 -115 c2 -63 8 -210 11 -326 l6 -212 -28 -48 c-15 -27 -36 -58 -46 -70 -17 -20 -18 -22 -2 -35 29 -23 64 -117 69 -182 5 -57 8 -64 49 -102 46 -43 80 -121 74 -172 -2 -23 -12 -31 -58 -50 l-55 -22 3 -68 4 -69 -59 -52 c-32 -29 -66 -59 -75 -67 -10 -8 -18 -28 -18 -44 0 -26 -3 -28 -37 -27 l-38 1 -5 -79 -5 -79 -45 -24 c-24 -13 -47 -28 -50 -33 -4 -6 -5 -47 -4 -93 2 -76 5 -88 45 -157 23 -41 62 -99 86 -129 23 -29 43 -61 43 -70 0 -10 -12 -26 -28 -38 -17 -12 -31 -37 -39 -64 -9 -34 -21 -51 -50 -69 -34 -23 -39 -32 -55 -100 -9 -41 -17 -85 -18 -98 0 -13 48 -139 107 -282 121 -293 101 -270 236 -270 69 0 71 -1 139 -52 79 -60 81 -54 -32 -114 l-66 -34 -12 -71 c-8 -48 -9 -76 -2 -89 5 -10 10 -32 10 -49 0 -26 -6 -33 -53 -54 -66 -32 -93 -62 -145 -159 -83 -157 -143 -219 -303 -316 -27 -16 -39 -32 -44 -55 -4 -18 -9 -39 -11 -49 -3 -12 5 -19 30 -28 20 -6 52 -30 72 -53 35 -41 35 -43 29 -108 -10 -102 11 -168 78 -238 64 -67 85 -104 94 -166 6 -46 6 -46 82 -81 42 -19 97 -40 124 -45 26 -6 47 -14 47 -18 0 -3 -18 -28 -40 -55 -22 -26 -40 -54 -40 -60 0 -7 13 -22 30 -34 31 -24 50 -73 50 -135 0 -20 9 -54 20 -74 15 -29 20 -57 20 -118 0 -79 17 -141 75 -282 17 -40 17 -43 -3 -75 l-20 -33 32 -55 c28 -48 42 -60 116 -100 67 -36 93 -57 127 -101 35 -47 54 -62 108 -85 60 -25 115 -71 115 -95 0 -5 -45 -80 -100 -167 l-100 -157 44 -45 c90 -95 98 -115 75 -205 -10 -39 -17 -46 -63 -69 -28 -13 -68 -27 -88 -31 -21 -3 -38 -9 -38 -14 0 -4 14 -17 30 -29 26 -20 30 -29 30 -73 0 -28 5 -60 11 -71 12 -22 4 -33 -47 -64 -18 -11 -18 -12 2 -35 12 -13 29 -38 37 -55 24 -47 100 -109 159 -130 67 -24 72 -45 19 -79 l-41 -25 0 -94 c0 -80 3 -97 22 -121 19 -24 26 -27 65 -22 51 5 42 14 139 -143 111 -179 117 -196 126 -339 9 -148 20 -206 47 -252 11 -19 27 -66 36 -104 29 -128 43 -159 95 -210 45 -45 50 -53 50 -95 0 -28 8 -58 21 -80 20 -31 20 -38 9 -86 -13 -52 -12 -54 18 -101 56 -87 58 -98 49 -243 -10 -149 -4 -176 40 -185 15 -3 49 -12 74 -20 58 -19 154 -19 205 -1 22 7 69 17 104 21 36 4 92 16 126 26 57 18 62 21 73 59 9 30 25 50 68 81 l56 42 -6 59 c-5 59 -5 60 18 54 19 -5 27 -1 37 21 14 29 79 67 136 79 29 6 32 9 32 43 0 21 5 63 11 94 10 46 16 57 31 57 11 0 33 9 48 20 16 11 59 28 97 36 120 28 207 58 228 79 15 14 26 50 39 120 29 168 30 170 51 173 11 1 47 -6 79 -16 53 -17 61 -23 71 -53 12 -35 44 -59 81 -59 32 0 99 -53 118 -94 26 -55 54 -69 123 -61 32 4 119 8 193 8 74 1 176 6 225 11 80 7 103 5 203 -18 63 -14 134 -35 159 -46 27 -12 67 -20 98 -20 29 0 66 -3 84 -6 63 -13 111 -95 77 -133 -16 -17 -15 -22 9 -66 14 -26 25 -54 25 -61 0 -7 16 -28 35 -47 38 -37 42 -57 23 -119 -11 -37 -10 -40 20 -69 20 -20 39 -55 54 -102 38 -118 55 -102 65 62 7 120 29 177 101 263 26 31 44 66 52 100 7 29 25 78 40 108 15 30 40 91 55 135 16 44 33 86 38 93 8 9 122 12 536 10 l526 -3 3 -60 c3 -66 10 -77 65 -112 24 -15 46 -40 57 -66 12 -27 21 -36 24 -27 3 8 85 278 181 599 l176 584 -7 228 -7 229 160 237 160 238 76 204 c42 112 78 206 81 209 3 3 243 44 533 93 369 61 596 104 753 142 355 87 288 83 755 44 l410 -34 325 -188 c486 -281 509 -295 520 -315 15 -28 12 -188 -5 -244 -8 -27 -15 -60 -15 -74 0 -22 5 -18 38 28 34 49 45 57 112 82 46 17 87 40 108 61 l34 34 -49 45 c-26 25 -83 76 -125 113 l-76 68 115 226 c221 431 221 431 252 431 15 0 35 6 45 13 16 12 16 16 2 57 -8 24 -13 47 -11 50 3 4 -7 12 -20 18 -48 22 -44 46 63 335 87 239 102 272 123 277 13 3 30 19 38 35 13 27 12 29 -13 48 -32 23 -55 68 -86 167 -12 41 -31 86 -41 98 -14 18 -18 39 -16 83 2 53 -1 62 -22 78 -21 16 -23 26 -25 97 l-1 79 -35 17 c-19 9 -52 37 -73 62 -47 56 -129 100 -218 116 -89 15 -125 28 -157 54 -15 13 -46 33 -69 45 l-43 21 0 63 c0 34 -9 94 -20 132 -12 41 -21 101 -21 145 -1 41 -5 107 -11 147 -11 83 -4 102 61 177 44 51 95 192 89 249 -3 27 -8 33 -33 35 -22 3 -35 -3 -55 -26 l-25 -30 -575 38 c-316 21 -654 43 -750 50 -291 18 -280 16 -280 53 0 18 -9 174 -20 347 -11 173 -20 333 -20 355 0 37 -12 53 -157 220 l-156 180 82 3 c81 3 81 3 81 30 0 15 -7 49 -15 76 -18 58 -20 218 -4 267 7 19 24 48 39 64 17 18 30 46 33 70 3 22 9 53 12 68 6 23 1 36 -24 68 -43 53 -77 130 -93 210 -17 80 -10 108 37 160 42 47 42 57 -9 178 -34 81 -56 101 -112 101 -18 0 -38 8 -49 20 -10 11 -31 20 -47 20 -39 0 -163 64 -218 113 -25 21 -64 49 -88 60 -26 13 -45 30 -48 44 -7 28 -23 29 -73 4 -40 -21 -95 -22 -144 -2 -37 15 -57 14 -76 -3 -43 -36 -179 -50 -211 -21 -15 14 -33 14 -124 7 -132 -11 -154 -7 -175 30 -39 72 -93 148 -110 158 -23 12 -68 90 -85 143 -10 35 -16 40 -70 58 l-59 20 -48 -20 c-66 -29 -81 -27 -133 18 -35 30 -57 41 -107 50 -70 12 -79 18 -95 64 -14 42 -41 45 -94 12 -43 -27 -53 -26 -83 11 -9 13 -33 32 -52 44 -22 14 -35 30 -37 48 -2 21 -8 27 -26 26 -33 -1 -69 50 -92 132 -11 37 -25 71 -32 76 -25 17 -92 -1 -115 -31 -29 -37 -60 -44 -114 -27 -61 18 -119 60 -144 104 -16 28 -27 37 -47 37 -15 0 -33 6 -39 13 -7 6 -17 12 -23 12 -5 0 -39 14 -75 31 -90 43 -122 46 -165 19 -20 -12 -41 -30 -46 -40 -9 -17 -19 -18 -83 -13 -39 3 -74 10 -75 15 -2 5 -19 6 -38 2 -24 -4 -42 -1 -60 11 -19 12 -39 16 -66 12 -24 -3 -50 0 -66 9 -15 8 -40 14 -55 14 -18 0 -38 10 -55 29 -15 16 -37 34 -50 40 -18 10 -20 15 -12 31 13 24 13 76 0 101 -6 11 -21 19 -36 19 -14 0 -38 6 -52 14 -15 7 -40 18 -57 22 -25 8 -32 17 -39 52 -10 43 -22 50 -56 32 -17 -9 -25 -3 -56 40 l-37 51 -58 -2 c-66 -3 -85 8 -94 54 -4 18 -20 59 -36 91 -16 33 -29 67 -29 76 0 36 -46 53 -70 25 -19 -23 -33 -18 -57 21 -24 38 -29 69 -13 79 18 11 11 53 -10 60 -16 5 -20 15 -20 50 0 43 0 44 -37 47 -31 3 -38 8 -46 33 -5 17 -17 38 -25 48 -12 13 -13 20 -4 29 7 7 12 20 12 31 0 13 -5 17 -19 12 -29 -9 -44 18 -37 67 9 60 9 70 1 94 -5 15 -1 23 18 31 19 9 26 22 32 60 4 26 13 60 21 75 13 25 12 34 -5 85 -15 43 -25 59 -42 63 -35 8 -45 33 -31 73 25 70 10 137 -32 137 -28 0 -40 24 -25 51 6 11 7 33 4 50 -5 22 -1 36 18 58 14 17 27 49 31 74 7 44 24 67 77 100 39 24 45 62 15 97 -31 37 -52 147 -42 221 20 147 20 136 -13 174 -17 20 -31 39 -31 44 0 6 -46 33 -53 30 -1 0 -16 -10 -34 -21z" />
  </g>
  <g
     inkscape:label="Layer 1"
     id="layer1"
     inkscape:groupmode="layer">
    <g
       id="g1101"
       transform="matrix(0.3394836,0,0,0.31821129,847.48176,7.2943671)">
      <g
         id="g1099">
        <path
           d="M 500,10 C 330.6,10 193.7,146.9 193.7,316.3 193.7,485.7 346.9,714.4 500,990 653.1,714.4 806.3,485.6 806.3,316.2 806.3,146.8 669.4,10 500,10 Z m 0,428.8 c -67.9,0 -122.5,-54.6 -122.5,-122.5 0,-67.9 54.6,-122.5 122.5,-122.5 67.9,0 122.5,54.6 122.5,122.5 0,67.9 -54.6,122.5 -122.5,122.5 z"
           id="path1097" />
      </g>
    </g>
  </g>
</svg>
