<?xml version="1.0" encoding="UTF-8" standalone="no"?>
<svg
   xmlns:dc="http://purl.org/dc/elements/1.1/"
   xmlns:cc="http://creativecommons.org/ns#"
   xmlns:rdf="http://www.w3.org/1999/02/22-rdf-syntax-ns#"
   xmlns:svg="http://www.w3.org/2000/svg"
   xmlns="http://www.w3.org/2000/svg"
   xmlns:sodipodi="http://sodipodi.sourceforge.net/DTD/sodipodi-0.dtd"
   xmlns:inkscape="http://www.inkscape.org/namespaces/inkscape"
   inkscape:version="1.0 (4035a4fb49, 2020-05-01)"
   sodipodi:docname="monitor_tools.svg"
   id="svg24"
   xml:space="preserve"
   enable-background="new 0 0 1000 1000"
   viewBox="0 0 1000 1000"
   y="0px"
   x="0px"
   version="1.1"><defs
   id="defs28" /><sodipodi:namedview
   inkscape:current-layer="g22"
   inkscape:window-maximized="1"
   inkscape:window-y="-9"
   inkscape:window-x="-9"
   inkscape:cy="557.9899"
   inkscape:cx="450.78168"
   inkscape:zoom="0.60104076"
   showgrid="false"
   id="namedview26"
   inkscape:window-height="1005"
   inkscape:window-width="1920"
   inkscape:pageshadow="2"
   inkscape:pageopacity="0"
   guidetolerance="10"
   gridtolerance="10"
   objecttolerance="10"
   borderopacity="1"
   bordercolor="#666666"
   pagecolor="#ffffff" />
<metadata
   id="metadata2"> Svg Vector Icons : http://www.onlinewebfonts.com/icon <rdf:RDF><cc:Work
     rdf:about=""><dc:format>image/svg+xml</dc:format><dc:type
       rdf:resource="http://purl.org/dc/dcmitype/StillImage" /><dc:title></dc:title></cc:Work></rdf:RDF></metadata>
<g
   id="g22"><path
     style="stroke-width:0.1"
     d="M 23.4,105.77 C 9.06,117 10.01,95.97 10.01,438.24 c 0,293.99 0.24,314.31 4.3,322.2 8.6,17.69 -3.35,16.73 224.68,16.73 h 203.64 v 21.51 21.27 l -94.17,0.72 c -113.06,0.96 -103.26,-2.15 -116.64,35.61 -9.32,26.53 -10.76,35.38 -6.21,39.92 4.06,4.06 544.72,4.06 548.78,0 4.54,-4.54 3.11,-13.38 -6.21,-39.92 -13.39,-37.76 -3.59,-34.66 -116.64,-35.61 l -94.17,-0.72 v -21.27 -21.51 h 203.88 c 227.78,0 215.83,0.96 224.44,-16.73 4.06,-7.89 4.3,-28.2 4.3,-322.2 0,-342.27 0.96,-321.24 -13.38,-332.47 l -6.45,-5.02 H 500 29.85 Z m 906.35,308.57 -0.72,254.08 H 500 70.96 L 70.24,414.34 69.76,160.5 H 500 930.23 Z M 536.81,709.29 c 4.06,3.83 5.02,14.58 1.91,19.36 -3.35,5.5 -15.3,7.89 -38.72,7.89 -32.51,0 -40.63,-3.35 -40.63,-17.21 0,-12.43 4.3,-13.86 40.63,-13.86 27.01,0 33.94,0.71 36.81,3.82 z"
     id="path4" /><g
     id="g12"
     transform="matrix(0.4499888,0,0,0.4499888,274.17673,182.66334)"><g
       transform="matrix(0.1,0,0,-0.1,0,511)"
       id="g10"><path
         d="m 1649.4,4560.8 451.4,-451.4 -90.7,-446.9 c -47.6,-245 -95.3,-451.4 -102.1,-460.5 -9.1,-6.8 -215.5,-54.4 -460.5,-102.1 L 1000.6,3009.2 549.2,3460.6 100,3909.8 v -467.3 c 0,-363 6.8,-490 34,-567.1 27.2,-79.4 129.3,-195.1 494.5,-560.3 251.8,-254.1 485.5,-476.4 519.5,-494.5 93,-47.6 195.1,-40.8 671.5,52.2 l 437.8,83.9 1014,-1014 1014,-1014 -1270.3,-1270.6 -1270.3,-1270.3 -451.4,-90.7 c -249.5,-49.9 -456,-90.7 -460.5,-90.7 -4.5,0 -170.1,-324.4 -367.5,-721.4 l -360.7,-723.7 272.2,-274.5 274.5,-272.2 723.7,360.7 c 397,197.4 721.4,363 721.4,367.5 0,4.5 40.8,211 90.7,460.5 l 90.7,451.4 1270.3,1270.3 1270.4,1270.4 1014,-1014 1014,-1014 -83.9,-437.8 c -93,-476.4 -99.8,-578.5 -52.2,-671.5 18.1,-34 240.5,-267.7 494.5,-519.5 365.2,-365.2 480.9,-467.3 560.3,-494.5 77.1,-27.2 204.2,-34 567.1,-34 h 467.3 l -449.2,449.2 -451.4,451.4 90.7,446.9 c 47.7,245 95.3,451.4 102.1,460.5 9.1,6.8 215.5,54.4 460.5,102.1 l 446.9,90.7 451.4,-451.4 449.2,-449.2 v 467.3 c 0,363 -6.8,490 -34,567.1 -27.2,79.4 -129.3,195.1 -494.5,560.3 -251.8,254.1 -485.5,476.4 -519.5,494.5 -93,47.6 -195.1,40.8 -671.5,-52.2 l -435.6,-83.9 -896.1,893.8 c -492,492.3 -893.6,905.2 -889,918.8 4.5,11.3 52.2,45.4 106.6,74.9 136.1,68.1 279,65.8 421.9,-6.8 l 111.2,-56.7 1504,1504 c 1397.4,1395.1 1508.6,1513.1 1583.4,1662.8 220,440.1 136.1,902.9 -231.4,1279.4 -322.1,333.5 -694.2,453.7 -1086.6,351.6 C 8076.1,4808.1 8078.3,4810.3 6479,3211 L 4977.3,1709.3 5034,1598.1 c 72.6,-142.9 74.9,-285.8 6.8,-421.9 -29.5,-54.4 -63.5,-102.1 -74.9,-106.6 -13.6,-4.5 -426.5,397 -918.8,889.3 l -893.8,896.1 83.9,435.6 c 93,476.4 99.8,578.5 52.2,671.5 -18.2,34 -240.5,267.7 -494.5,519.5 -365.2,365.2 -480.9,467.3 -560.3,494.5 -77.1,27.2 -204.2,34 -567.1,34 h -467.3 z m 1025.4,-208.7 c 256.3,-256.3 471.8,-485.5 478.7,-510.4 4.5,-25 -36.3,-270 -93,-544.4 l -102.1,-499.1 921,-921 c 707.8,-707.8 911.9,-925.6 882.5,-936.9 -81.7,-31.8 -233.7,-11.3 -342.5,43.1 L 4308.2,1040.1 4115.4,847.3 3922.6,654.5 4194.8,382.3 C 4410.3,166.8 4460.2,105.5 4437.5,82.9 4414.8,60.3 4194.8,268.9 3360,1103.7 l -1048.2,1048 -499.1,-102.1 c -274.5,-56.7 -519.5,-97.5 -544.4,-93 -25,6.8 -254.1,222.3 -510.4,478.7 l -465,465 -6.8,290.4 -6.8,288.1 328.9,-328.9 331.2,-326.7 562.6,111.2 562.6,111.2 111.2,562.6 111.2,562.6 -326.7,331.2 -328.9,328.9 288.1,-6.8 290.4,-6.8 z m 6342.7,299.5 c 190.6,-90.7 449.2,-353.9 537.6,-542.2 54.5,-118 61.3,-156.5 61.3,-369.8 0,-408.3 88.5,-299.4 -1597.1,-1982.7 L 6569.8,307.4 l -77.1,31.8 c -115.7,49.9 -372,38.6 -485.4,-20.4 -142.9,-72.6 -220,-147.5 -292.6,-281.3 -54.5,-99.8 -65.8,-147.5 -68.1,-279 0,-88.5 13.6,-192.8 31.8,-233.7 31.7,-74.9 29.5,-77.1 -52.2,-158.8 l -81.7,-83.9 -685.2,687.2 -687.3,685.1 83.9,83.9 c 74.9,74.9 88.5,81.7 140.6,56.7 108.9,-49.9 272.2,-56.7 406.1,-18.2 279,81.7 458.2,317.6 458.2,601.2 0,81.7 -13.6,183.8 -31.8,224.6 l -31.7,77.1 1438.2,1440.5 c 791.8,791.8 1481.5,1465.6 1535.9,1497.3 161.1,95.3 270,120.2 494.5,113.4 179.2,-4.5 226.9,-15.8 351.6,-79.3 z M 4739.1,-162.2 4875.2,-298.3 3496,-1677.6 l -1377,-1377 -88.5,-437.8 c -49.9,-240.5 -93,-442.4 -95.3,-446.9 -4.5,-2.3 -288.1,-145.2 -630.6,-317.6 l -621.6,-310.8 -179.2,181.5 -181.5,179.2 310.8,621.6 c 172.4,342.6 315.3,626.1 319.9,630.7 4.5,4.5 204.2,47.6 444.6,95.3 l 435.5,86.2 1374.7,1374.7 c 755.5,755.3 1377.1,1372.4 1383.9,1372.4 6.8,0 72.6,-61.3 147.4,-136.1 z m 3448.2,-1665.1 c 274.5,54.5 519.5,95.3 544.4,90.7 25,-6.8 254.1,-222.3 510.4,-478.7 l 465,-465 6.8,-290.4 6.8,-288.1 -324.4,324.4 c -179.2,176.9 -340.3,322.1 -358.4,322.1 -18.1,0 -274.5,-47.6 -569.4,-104.3 l -535.4,-106.6 -106.6,-535.4 c -56.7,-294.9 -104.3,-551.3 -104.3,-569.4 0,-18.1 145.2,-179.2 324.4,-358.4 l 322.1,-324.4 -288.1,6.8 -290.4,6.8 -465,465 c -256.3,256.3 -471.9,485.5 -478.7,510.4 -4.5,24.9 36.3,270 90.7,544.4 l 102.1,499.1 -1048,1048.2 c -832.5,834.8 -1041.2,1054.8 -1018.5,1077.5 22.7,22.7 83.9,-27.2 299.5,-242.7 l 272.2,-272.2 192.8,192.8 192.8,192.8 -56.7,111.2 c -54.5,108.9 -74.9,260.9 -43.1,342.5 11.3,29.5 229.1,-174.7 936.9,-880.2 l 921,-921 z"
         id="path4-7" /><path
         d="m 7048.5,2807.3 c -991.3,-993.6 -1390.6,-1404.2 -1386.1,-1436 4.5,-22.7 25,-54.4 47.6,-68.1 34,-20.4 229.1,165.6 1433.7,1370.2 766.8,766.8 1395.1,1413.3 1395.1,1433.7 0,22.7 -22.7,49.9 -47.6,65.8 -45.3,22.7 -158.7,-83.9 -1442.7,-1365.6 z"
         id="path6" /><path
         d="M 7592.9,2262.8 C 6601.6,1269.2 6202.3,858.6 6206.8,826.8 c 4.5,-22.7 24.9,-54.4 47.6,-68.1 34,-20.4 229.1,165.6 1433.7,1370.2 766.8,766.8 1395.1,1413.3 1395.1,1433.7 0,22.7 -22.7,49.9 -47.6,65.8 -45.3,22.8 -158.7,-83.9 -1442.7,-1365.6 z"
         id="path8" /></g></g></g>
</svg>
