<?xml version="1.0" encoding="utf-8"?>
<!-- Svg Vector Icons : http://www.onlinewebfonts.com/icon -->
<!DOCTYPE svg PUBLIC "-//W3C//DTD SVG 1.1//EN" "http://www.w3.org/Graphics/SVG/1.1/DTD/svg11.dtd">
<svg version="1.1" xmlns="http://www.w3.org/2000/svg" xmlns:xlink="http://www.w3.org/1999/xlink" x="0px" y="0px" viewBox="0 0 1000 1000" enable-background="new 0 0 1000 1000" xml:space="preserve">
<metadata> Svg Vector Icons : http://www.onlinewebfonts.com/icon </metadata>
<g><g transform="translate(0.000000,511.000000) scale(0.100000,-0.100000)"><path d="M5572.8,4980.6c-509.8-81.1-1030.3-300.8-1469.8-625c-241-177.1-571.7-524.8-746.6-785c-377.6-565.3-546.1-1081.5-569.6-1749.2L2774,1478l189.8-10.7c104.5-6.4,1593.5-14.9,3308.6-17.1l3118.7-4.3l14.9,104.5c8.5,55.5,4.3,232.5-10.7,390.4c-42.7,488.5-140.8,849-343.4,1250C8561.3,4161.5,7614.2,4842,6547.6,4989.2C6325.8,5021.2,5798.9,5014.8,5572.8,4980.6z M5958.9,3899.1V3065l-249.6,12.8c-343.4,19.2-979.1,134.4-1038.8,187.7c-40.5,36.3,185.6,544,356.2,797.8c113.1,166.4,332.8,394.6,473.6,492.8c110.9,74.7,347.7,174.9,422.4,177.1C5956.7,4735.3,5958.9,4682,5958.9,3899.1z M6391.9,4694.8c424.5-147.2,806.3-588.8,1060.2-1226.6c36.3-91.7,61.9-181.3,55.4-196.3c-21.3-53.3-637.8-170.7-1030.3-194.1l-241-12.8v834.1c0,460.8,8.5,836.2,17.1,836.2C6263.9,4735.3,6325.8,4716.1,6391.9,4694.8z M4986.1,4443.1c-217.6-258.1-424.5-618.6-544-955.7c-27.7-76.8-57.6-138.7-64-138.7c-38.4,0-584.5,292.3-590.9,315.7c-10.7,36.3,313.6,354.1,490.6,480c219.7,157.9,420.2,273,625,358.4c106.7,44.8,194.1,83.2,198.4,83.2C5105.6,4586,5052.3,4522,4986.1,4443.1z M7366.8,4464.4c341.3-160,635.7-369,906.6-646.3c177-179.2,187.7-155.7-170.7-330.6c-339.2-164.3-315.7-164.3-373.3-6.4c-121.6,341.3-311.4,676.2-539.7,953.5C7040.4,4615.8,7044.7,4615.8,7366.8,4464.4z M3977.1,3244.2c113.1-57.6,234.7-113.1,268.8-125.8l64-21.3l-49.1-219.7c-51.2-228.2-106.7-642.1-128-962.1l-12.8-187.7h-531.2h-531.2v134.4c0,426.6,170.7,977,441.6,1427.1l98.1,164.2l87.5-53.3C3734,3370.1,3864.1,3299.7,3977.1,3244.2z M8657.3,3338.1c262.4-411.7,430.9-921.5,471.4-1425l14.9-185.6l-552.5,4.3l-552.5,6.4l-4.3,149.3c-12.8,345.6-106.7,1009-166.4,1166.9c-8.5,21.3,38.4,53.3,174.9,110.9c183.4,81.1,465,230.4,507.7,270.9C8578.4,3463.9,8574.1,3468.2,8657.3,3338.1z M4804.8,2943.4c241-61.9,646.4-123.7,917.3-140.8l236.8-14.9v-529v-531.1h-780.7h-782.9l14.9,251.7c17.1,273,61.9,618.6,110.9,836.2c42.7,189.8,46.9,198.4,85.3,183.4C4625.6,2992.5,4713.1,2966.9,4804.8,2943.4z M7663.3,2730.1c49.1-245.3,76.8-477.8,98.1-793.5l14.9-209h-770.1h-770.1v529v531.2l217.6,14.9c300.8,19.2,644.2,72.5,910.9,138.7c149.3,38.4,230.4,49.1,238.9,34.1C7612.1,2964.8,7637.7,2853.9,7663.3,2730.1z"/><path d="M2812.4,646c21.3-157.9,168.5-578.1,273-789.3c91.7-181.3,337.1-567.4,375.4-593c10.7-6.4,396.8,224,855.4,512c895.9,558.9,921.5,571.7,1047.4,484.2c64-44.8,723.1-761.6,723.1-789.3c0-8.5-307.2-264.5-682.6-567.4c-373.3-302.9-691.2-563.1-704-578.1c-17.1-21.3,12.8-42.7,134.4-91.7c614.3-256,1337.5-320,2000.9-174.9C7897.9-1711.1,8776.8-983.8,9220.5,29.5c83.2,187.7,172.8,473.6,202.7,637.8l14.9,78.9H6116.7H2797.5L2812.4,646z"/><path d="M3844.9-687.2c-1213.8-731.7-1527.4-913-1589.2-913c-17.1,0-29.9-4.3-29.9-8.5c0-6.4,981.3-2005.2,987.7-2009.4c2.1-2.1,83.2,8.5,179.2,25.6c298.6,46.9,855.4,78.9,1141.2,64c149.3-8.5,456.5-32,682.6-55.5c1254.3-125.9,1661.7-4.3,2672.9,802.1c462.9,369,657,514.1,857.5,640l177.1,110.9l-100.3,89.6c-164.3,142.9-247.5,177.1-465,187.7c-347.7,17.1-755.2-91.7-1320.4-347.7c-170.7-76.8-386.1-160-475.7-183.5c-245.3-61.8-550.4-74.6-793.5-32c-247.4,42.7-422.4,115.2-797.8,330.6c-258.1,147.2-401,215.5-556.8,266.7c-23.5,8.5-32,21.3-21.3,32c10.7,8.5,339.2,264.5,727.4,567.4l710.4,550.4L5641-365.1C5336-36.6,5222.9,63.7,5152.5,63.7C5109.9,63.7,4721.6-158.2,3844.9-687.2z"/><path d="M1195.5-1617.3l-633.6-313.6l693.3-1418.6c379.7-780.7,695.4-1427.1,699.7-1439.9c8.5-23.5,1273.5,584.5,1288.4,618.6c8.5,27.7-1365.2,2854.2-1393,2860.6C1839.7-1305.8,1545.3-1444.5,1195.5-1617.3z"/></g></g>
</svg>