<?xml version="1.0" encoding="utf-8"?>
<!-- Svg Vector Icons : http://www.onlinewebfonts.com/icon -->
<!DOCTYPE svg PUBLIC "-//W3C//DTD SVG 1.1//EN" "http://www.w3.org/Graphics/SVG/1.1/DTD/svg11.dtd">
<svg version="1.1" xmlns="http://www.w3.org/2000/svg" xmlns:xlink="http://www.w3.org/1999/xlink" x="0px" y="0px" viewBox="0 0 1000 1000" enable-background="new 0 0 1000 1000" xml:space="preserve">
<metadata> Svg Vector Icons : http://www.onlinewebfonts.com/icon </metadata>
<g><path d="M974.9,864.1L706,595.3c-0.4-0.4-0.7-0.7-1.1-1c38.7-59.3,61.2-130.1,61.2-206.2c0-208.8-169.3-378-378.1-378C179.3,10,10,179.2,10,388c0,208.8,169.3,378.1,378.1,378.1c77.6,0,149.7-23.4,209.7-63.5c1,1.2,2,2.3,3.1,3.4l267.5,270.3c17.4,17.4,49.3,18.8,66.7,1.4l43.5-49.1C996.1,911.2,992.3,881.5,974.9,864.1z M386.6,677.3C226,677.3,95.8,547.1,95.8,386.5C95.8,225.9,226,95.8,386.6,95.8c160.6,0,290.8,130.2,290.8,290.8C677.3,547.1,547.2,677.3,386.6,677.3z"/></g>
</svg>